<svg xmlns="http://www.w3.org/2000/svg" xmlns:xlink="http://www.w3.org/1999/xlink" zoomAndPan="magnify" preserveAspectRatio="xMidYMid meet" version="1.0" viewBox="0 0 25.5 19.5"><defs><clipPath id="9d4e2fbdea"><path d="M 16 3 L 25.5 3 L 25.5 16 L 16 16 Z M 16 3 " clip-rule="nonzero"/></clipPath><clipPath id="d81d9264fe"><path d="M 16 3 L 25.5 3 L 25.5 17 L 16 17 Z M 16 3 " clip-rule="nonzero"/></clipPath><clipPath id="78d609b924"><path d="M 8 0 L 17 0 L 17 19.5 L 8 19.5 Z M 8 0 " clip-rule="nonzero"/></clipPath><clipPath id="9aa66ac7db"><path d="M 8 0 L 18 0 L 18 19.5 L 8 19.5 Z M 8 0 " clip-rule="nonzero"/></clipPath></defs><path fill="#8c8c8e" d="M 8.042969 15.898438 C 7.902344 15.898438 7.765625 15.851562 7.652344 15.765625 L 0.519531 10.238281 C 0.367188 10.121094 0.277344 9.941406 0.277344 9.75 C 0.277344 9.558594 0.367188 9.378906 0.519531 9.261719 L 7.652344 3.734375 C 7.765625 3.648438 7.902344 3.601562 8.042969 3.601562 C 8.238281 3.601562 8.421875 3.6875 8.539062 3.839844 C 8.644531 3.96875 8.691406 4.132812 8.671875 4.296875 C 8.652344 4.460938 8.566406 4.609375 8.433594 4.710938 L 1.933594 9.75 L 8.433594 14.789062 C 8.566406 14.890625 8.652344 15.039062 8.671875 15.203125 C 8.691406 15.367188 8.644531 15.53125 8.539062 15.660156 C 8.421875 15.8125 8.238281 15.898438 8.042969 15.898438 " fill-opacity="1" fill-rule="nonzero"/><path fill="#8c8c8e" d="M 8.042969 3.335938 C 7.84375 3.335938 7.644531 3.402344 7.488281 3.527344 L 0.351562 9.050781 C 0.132812 9.222656 0.0078125 9.476562 0.0078125 9.75 C 0.0078125 10.023438 0.132812 10.277344 0.351562 10.449219 L 7.488281 15.972656 C 7.644531 16.097656 7.84375 16.164062 8.042969 16.164062 C 8.320312 16.164062 8.582031 16.039062 8.75 15.824219 C 8.902344 15.640625 8.96875 15.40625 8.9375 15.171875 C 8.910156 14.9375 8.789062 14.726562 8.601562 14.578125 L 2.367188 9.75 L 8.601562 4.921875 C 8.789062 4.773438 8.910156 4.5625 8.9375 4.328125 C 8.96875 4.09375 8.902344 3.859375 8.75 3.675781 C 8.582031 3.460938 8.320312 3.335938 8.042969 3.335938 Z M 8.042969 3.867188 C 8.152344 3.867188 8.257812 3.914062 8.328125 4 C 8.453125 4.15625 8.425781 4.382812 8.269531 4.503906 L 1.496094 9.75 L 8.269531 14.996094 C 8.425781 15.117188 8.453125 15.34375 8.328125 15.496094 C 8.257812 15.585938 8.152344 15.632812 8.042969 15.632812 C 7.964844 15.632812 7.886719 15.609375 7.820312 15.558594 L 0.683594 10.03125 C 0.597656 9.964844 0.546875 9.859375 0.546875 9.75 C 0.546875 9.640625 0.597656 9.535156 0.683594 9.46875 L 7.820312 3.941406 C 7.886719 3.890625 7.964844 3.867188 8.042969 3.867188 " fill-opacity="1" fill-rule="nonzero"/><g clip-path="url(#9d4e2fbdea)"><path fill="#8c8c8e" d="M 17.457031 15.898438 C 17.261719 15.898438 17.082031 15.8125 16.960938 15.660156 C 16.742188 15.390625 16.792969 15 17.066406 14.789062 L 23.570312 9.75 L 17.066406 4.710938 C 16.792969 4.5 16.742188 4.109375 16.960938 3.839844 C 17.082031 3.6875 17.261719 3.601562 17.457031 3.601562 C 17.597656 3.601562 17.734375 3.648438 17.847656 3.734375 L 24.980469 9.261719 C 25.132812 9.378906 25.222656 9.558594 25.222656 9.75 C 25.222656 9.941406 25.132812 10.121094 24.980469 10.238281 L 17.847656 15.765625 C 17.734375 15.851562 17.597656 15.898438 17.457031 15.898438 " fill-opacity="1" fill-rule="nonzero"/></g><g clip-path="url(#d81d9264fe)"><path fill="#8c8c8e" d="M 17.457031 3.335938 C 17.179688 3.335938 16.921875 3.460938 16.75 3.675781 C 16.441406 4.058594 16.507812 4.617188 16.898438 4.921875 L 23.132812 9.75 L 16.898438 14.578125 C 16.507812 14.882812 16.441406 15.441406 16.75 15.824219 C 16.921875 16.039062 17.179688 16.164062 17.457031 16.164062 C 17.65625 16.164062 17.855469 16.097656 18.011719 15.972656 L 25.148438 10.449219 C 25.367188 10.277344 25.492188 10.023438 25.492188 9.75 C 25.492188 9.476562 25.367188 9.222656 25.148438 9.050781 L 18.015625 3.527344 C 17.855469 3.402344 17.65625 3.335938 17.457031 3.335938 Z M 17.457031 3.867188 C 17.535156 3.867188 17.613281 3.890625 17.679688 3.941406 L 24.816406 9.46875 C 24.902344 9.535156 24.953125 9.640625 24.953125 9.75 C 24.953125 9.859375 24.902344 9.964844 24.816406 10.03125 L 17.679688 15.558594 C 17.613281 15.609375 17.535156 15.632812 17.457031 15.632812 C 17.347656 15.632812 17.242188 15.585938 17.171875 15.496094 C 17.046875 15.34375 17.074219 15.117188 17.230469 14.996094 L 24.003906 9.75 L 17.230469 4.503906 C 17.074219 4.382812 17.046875 4.15625 17.171875 4 C 17.242188 3.914062 17.351562 3.867188 17.457031 3.867188 " fill-opacity="1" fill-rule="nonzero"/></g><g clip-path="url(#78d609b924)"><path fill="#8c8c8e" d="M 9.203125 19.234375 C 9.125 19.234375 9.050781 19.21875 8.976562 19.191406 C 8.820312 19.132812 8.695312 19.015625 8.625 18.863281 C 8.558594 18.710938 8.554688 18.542969 8.613281 18.386719 L 15.582031 0.664062 C 15.675781 0.425781 15.914062 0.265625 16.171875 0.265625 C 16.25 0.265625 16.328125 0.28125 16.402344 0.308594 C 16.726562 0.433594 16.886719 0.792969 16.761719 1.113281 L 9.792969 18.835938 C 9.699219 19.074219 9.464844 19.234375 9.203125 19.234375 " fill-opacity="1" fill-rule="nonzero"/></g><g clip-path="url(#9aa66ac7db)"><path fill="#8c8c8e" d="M 16.171875 0 C 15.800781 0 15.464844 0.230469 15.332031 0.566406 L 8.363281 18.289062 C 8.277344 18.511719 8.285156 18.753906 8.378906 18.96875 C 8.476562 19.1875 8.65625 19.355469 8.878906 19.4375 C 8.984375 19.480469 9.09375 19.5 9.203125 19.5 C 9.574219 19.5 9.910156 19.269531 10.046875 18.933594 L 17.011719 1.210938 C 17.191406 0.753906 16.960938 0.238281 16.496094 0.0625 C 16.394531 0.0195312 16.285156 0 16.171875 0 Z M 16.171875 0.53125 C 16.214844 0.53125 16.257812 0.539062 16.304688 0.554688 C 16.488281 0.625 16.582031 0.832031 16.511719 1.015625 L 9.542969 18.738281 C 9.488281 18.882812 9.351562 18.96875 9.203125 18.96875 C 9.160156 18.96875 9.117188 18.960938 9.074219 18.945312 C 8.886719 18.875 8.792969 18.664062 8.867188 18.484375 L 15.832031 0.761719 C 15.890625 0.617188 16.027344 0.53125 16.171875 0.53125 " fill-opacity="1" fill-rule="nonzero"/></g></svg>